<svg width="140" height="140" viewBox="0 0 140 140" fill="none" xmlns="http://www.w3.org/2000/svg">
<rect width="140" height="140" rx="70" fill="#F1F1F1"/>
<path d="M51.8774 69.0305C51.8774 69.0305 46.5663 67.8501 45.7793 72.3743C44.9924 76.8984 48.1401 77.8821 48.1401 77.8821C48.1401 77.8821 43.4192 72.571 40.0748 76.3089C36.731 80.0462 42.2388 83.1932 42.2388 83.1932C42.2388 83.1932 36.1408 79.8494 34.9604 83.9801C33.7806 88.1109 38.6983 90.6684 38.6983 90.6684C38.6983 90.6684 33.3872 90.2749 33.5839 92.635C33.7806 94.9958 38.895 93.0285 38.895 93.0285C38.895 93.0285 31.4199 94.4056 32.6003 100.307C33.7806 106.208 39.6813 102.864 39.6813 102.864C39.6813 102.864 35.1571 105.225 36.3375 112.699C37.5179 120.174 71.1545 105.028 71.1545 105.028L71.7447 84.7671L51.8774 69.0305Z" fill="#352836"/>
<path d="M90.6988 69.0305C90.6988 69.0305 96.0099 67.8501 96.7968 72.3743C97.5838 76.8984 94.4361 77.8821 94.4361 77.8821C94.4361 77.8821 99.157 72.571 102.501 76.3089C105.845 80.0462 100.337 83.1932 100.337 83.1932C100.337 83.1932 106.435 79.8494 107.616 83.9801C108.796 88.1109 103.878 90.6684 103.878 90.6684C103.878 90.6684 109.189 90.2749 108.992 92.635C108.796 94.9958 103.681 93.0285 103.681 93.0285C103.681 93.0285 111.156 94.4056 109.976 100.307C108.796 106.208 102.894 102.864 102.894 102.864C102.894 102.864 107.419 105.225 106.239 112.699C105.058 120.174 71.4217 105.028 71.4217 105.028L70.8315 84.7671L90.6988 69.0305Z" fill="#352836"/>
<path d="M51.8774 69.0305C51.8774 69.0305 46.5663 67.8501 45.7793 72.3743C44.9924 76.8984 48.1401 77.8821 48.1401 77.8821C48.1401 77.8821 43.4192 72.571 40.0748 76.3089C36.731 80.0462 42.2388 83.1932 42.2388 83.1932C42.2388 83.1932 36.1408 79.8494 34.9604 83.9801C33.7806 88.1109 38.6983 90.6684 38.6983 90.6684C38.6983 90.6684 33.3872 90.2749 33.5839 92.635C33.7806 94.9958 38.895 93.0285 38.895 93.0285C38.895 93.0285 31.4199 94.4056 32.6003 100.307C33.7806 106.208 39.6813 102.864 39.6813 102.864C39.6813 102.864 35.1571 105.225 36.3375 112.699C37.5179 120.174 71.1545 105.028 71.1545 105.028L71.7447 84.7671L51.8774 69.0305Z" fill="#281F29"/>
<path d="M90.6988 69.0305C90.6988 69.0305 96.0099 67.8501 96.7968 72.3743C97.5838 76.8984 94.4361 77.8821 94.4361 77.8821C94.4361 77.8821 99.157 72.571 102.501 76.3089C105.845 80.0462 100.337 83.1932 100.337 83.1932C100.337 83.1932 106.435 79.8494 107.616 83.9801C108.796 88.1109 103.878 90.6684 103.878 90.6684C103.878 90.6684 109.189 90.2749 108.992 92.635C108.796 94.9958 103.681 93.0285 103.681 93.0285C103.681 93.0285 111.156 94.4056 109.976 100.307C108.796 106.208 102.894 102.864 102.894 102.864C102.894 102.864 107.419 105.225 106.239 112.699C105.058 120.174 71.4217 105.028 71.4217 105.028L70.8315 84.7671L90.6988 69.0305Z" fill="#281F29"/>
<path d="M83.5498 101.096C78.006 98.0719 79.5178 83.4549 79.5178 83.4549L71.2151 83.9895V83.4568L70.3269 83.7235L69.438 83.4568V83.9895L61.1354 83.4549C61.1354 83.4549 62.6478 98.0719 57.104 101.096C51.5602 104.12 18.8014 105.632 22.3289 139.399H69.438H71.2151H118.324C121.852 105.632 89.0936 104.12 83.5498 101.096Z" fill="#AA534F"/>
<path d="M59.9716 97.3254C66.6036 96.3372 73.2311 95.3169 79.854 94.2659C78.9219 89.2261 79.518 83.4548 79.518 83.4548L71.2154 83.9901V83.4568L70.3265 83.7234L69.4383 83.4568V83.9901L61.1357 83.4548C61.1357 83.4548 62.0108 91.9476 59.9716 97.3254Z" fill="#863F38"/>
<g opacity="0.300003">
<g opacity="0.300003">
<path opacity="0.300003" d="M23.9208 139.399H119.704C120.898 128.161 118.063 120.445 113.513 115.041C83.458 122.399 53.8731 131.609 23.9208 139.399Z" fill="#281F29"/>
</g>
</g>
<path d="M83.8406 100.545C81.6387 99.3643 80.5184 96.4375 79.9707 93.2866C76.9027 93.9715 73.5812 94.3493 70.1093 94.3493C66.7067 94.3493 63.4459 93.9885 60.4295 93.329C59.8792 96.4637 58.7589 99.3696 56.5668 100.545C50.8491 103.613 17.0648 105.147 20.7034 139.398H69.2877H71.1197H119.704C123.343 105.147 89.5576 103.613 83.8406 100.545Z" fill="#FF6A59"/>
<path d="M112.892 114.151C108.483 116.267 103.597 117.72 98.7667 119.221C91.9379 121.344 85.085 123.386 78.2105 125.356C64.4307 129.301 50.5856 133.014 36.7431 136.733C32.7948 137.794 28.6033 138.333 24.6569 139.396L119.787 139.92C121.022 128.106 117.821 119.515 112.892 114.151Z" fill="#F2534F"/>
<path d="M54.0936 62.0588C52.4603 56.9915 48.5923 58.1647 48.2302 58.2869C47.8505 58.3313 43.8524 58.9248 44.5433 64.2039C45.238 69.515 48.3191 72.3928 51.2086 71.5477C54.1825 71.0764 55.7367 67.1568 54.0936 62.0588Z" fill="#863F38"/>
<path d="M86.7092 62.0588C88.3425 56.9915 92.2105 58.1647 92.5726 58.2869C92.9523 58.3313 96.9503 58.9248 96.2595 64.2039C95.5647 69.515 92.4837 72.3928 89.5941 71.5477C86.6203 71.0764 85.066 67.1568 86.7092 62.0588Z" fill="#863F38"/>
<path d="M50.1309 54.382C52.1551 32.1657 69.0447 33.4101 70.6375 33.5774C72.2303 33.4101 89.1192 32.1657 91.1433 54.382C93.1799 76.7304 83.2257 91.3265 70.6375 90.5232C58.0486 91.3265 48.0943 76.7304 50.1309 54.382Z" fill="#AA534F"/>
<path d="M73.5495 64.8351C73.8279 65.3482 74.0429 65.8743 74.237 66.4057C74.4292 66.9364 74.5919 67.4743 74.7377 68.0149C74.8142 68.2848 74.8684 68.5593 74.9344 68.8312C75.0031 69.1024 75.0547 69.3776 75.1044 69.6528C75.2135 70.2011 75.2906 70.7567 75.3534 71.3155L75.3821 71.5763L75.2403 71.7057C74.7874 72.1207 74.322 72.524 73.8488 72.9194C73.3678 73.3077 72.89 73.6985 72.3736 74.0528C72.7083 73.524 73.0821 73.0325 73.4527 72.5377C73.8312 72.0508 74.2174 71.5711 74.6155 71.1031L74.5031 71.4939C74.3357 70.9573 74.1828 70.4175 74.0625 69.8717C73.9972 69.5992 73.9344 69.3266 73.8874 69.0508C73.839 68.775 73.7782 68.5024 73.7403 68.2247C73.656 67.6704 73.5887 67.1129 73.5514 66.5495C73.5155 65.9854 73.5011 65.4168 73.5495 64.8351Z" fill="#863F38"/>
<path d="M79.2478 78.0436C75.2269 81.952 68.4158 81.7357 63.2569 78.252L79.2478 78.0436Z" fill="white"/>
<path d="M86.5648 57.3021C86.5648 57.3021 86.389 57.2047 86.0812 57.0342C85.9315 56.9525 85.7498 56.8531 85.5419 56.7394C85.338 56.6309 85.1073 56.5093 84.8563 56.3766C84.5969 56.2655 84.3374 56.1158 84.0472 56.0021C83.9067 55.9394 83.7622 55.8753 83.6145 55.8093C83.4655 55.7551 83.3132 55.7002 83.1589 55.6433C82.8576 55.51 82.5302 55.4616 82.2178 55.3505C81.8936 55.3172 81.5759 55.1943 81.2524 55.2067L80.7707 55.1675C80.6119 55.1864 80.4537 55.1917 80.2949 55.2008C79.9733 55.1871 79.6746 55.3067 79.3642 55.3453C79.0544 55.3943 78.7772 55.544 78.4864 55.6204L78.2714 55.6871L78.0759 55.7858C77.9426 55.8479 77.8145 55.908 77.691 55.9662C77.4459 56.0877 77.1942 56.1753 77.0047 56.3074C76.8099 56.4296 76.6243 56.5257 76.4727 56.6093C76.1674 56.7747 75.972 56.8609 75.972 56.8609C75.972 56.8609 76.0491 56.6753 76.2217 56.3642C76.3086 56.2093 76.4132 56.0165 76.5511 55.8067C76.6727 55.5819 76.8655 55.3766 77.0844 55.1538C77.3106 54.9413 77.5138 54.6472 77.8348 54.4616C78.1465 54.2708 78.4563 54.0119 78.8439 53.8681C79.0361 53.7904 79.2361 53.7211 79.4387 53.6492C79.6387 53.5642 79.8537 53.5276 80.074 53.5021C80.2929 53.4721 80.5145 53.4381 80.738 53.4178C80.9603 53.4204 81.1844 53.4361 81.408 53.4485C81.8616 53.4577 82.2805 53.608 82.7008 53.7106C82.9021 53.7832 83.0955 53.8708 83.2864 53.9544C83.4812 54.0322 83.6635 54.123 83.8295 54.2342C83.9995 54.3387 84.1681 54.4368 84.3263 54.5433C84.474 54.6603 84.6191 54.7747 84.7603 54.8864C85.0459 55.1021 85.2622 55.3668 85.4786 55.5825C85.8857 56.0459 86.1655 56.4727 86.3308 56.7904C86.5034 57.1041 86.5648 57.3021 86.5648 57.3021Z" fill="#352836"/>
<path d="M65.5263 57.3021C65.5263 57.3021 65.3505 57.2047 65.042 57.0342C64.893 56.9525 64.7113 56.8531 64.5035 56.7394C64.2995 56.6309 64.0688 56.5093 63.8178 56.3766C63.5584 56.2655 63.2989 56.1158 63.0087 56.0021C62.8682 55.9394 62.7237 55.8753 62.576 55.8093C62.427 55.7551 62.2747 55.7002 62.1205 55.6433C61.8192 55.51 61.4917 55.4616 61.1793 55.3505C60.8551 55.3172 60.5375 55.1943 60.2139 55.2067L59.7322 55.1675C59.5734 55.1864 59.4152 55.1917 59.2564 55.2008C58.9348 55.1871 58.6361 55.3067 58.3257 55.3453C58.0159 55.3943 57.7388 55.544 57.4473 55.6204L57.2329 55.6871L57.0375 55.7858C56.9041 55.8479 56.776 55.908 56.6525 55.9662C56.4074 56.0877 56.1558 56.1753 55.9662 56.3074C55.7714 56.4296 55.5858 56.5257 55.4342 56.6093C55.129 56.7747 54.9335 56.8609 54.9335 56.8609C54.9335 56.8609 55.0107 56.6753 55.1832 56.3642C55.2701 56.2093 55.3747 56.0165 55.512 55.8067C55.6342 55.5819 55.827 55.3766 56.0453 55.1538C56.2721 54.9413 56.4754 54.6472 56.7963 54.4616C57.108 54.2708 57.4178 54.0119 57.8054 53.8681C57.9976 53.7904 58.1976 53.7211 58.4002 53.6492C58.6002 53.5642 58.8152 53.5276 59.0355 53.5021C59.2544 53.4721 59.476 53.4381 59.6995 53.4178C59.9218 53.4204 60.146 53.4361 60.3695 53.4485C60.8231 53.4577 61.242 53.608 61.6623 53.7106C61.8636 53.7832 62.0571 53.8708 62.2479 53.9544C62.4427 54.0322 62.625 54.123 62.791 54.2342C62.961 54.3387 63.1296 54.4368 63.2878 54.5433C63.4355 54.6603 63.5806 54.7747 63.7218 54.8864C64.0074 55.1021 64.2237 55.3668 64.4401 55.5825C64.8466 56.0459 65.127 56.4727 65.2924 56.7904C65.4649 57.1041 65.5263 57.3021 65.5263 57.3021Z" fill="#352836"/>
<path d="M64.859 65.3526C64.859 65.3526 64.8132 65.1722 64.7106 64.8702C64.608 64.5683 64.4485 64.1434 64.1995 63.6781C63.9472 63.2167 63.5949 62.7147 63.1034 62.3487C62.8616 62.1637 62.5838 62.0167 62.2825 61.9251C62.1341 61.8729 61.9825 61.8238 61.8184 61.8134C61.6583 61.7918 61.4995 61.7578 61.3315 61.7748C61.1759 61.7807 60.9773 61.7611 60.857 61.7833C60.6871 61.816 60.474 61.8245 60.3426 61.8761C60.0773 61.9624 59.7746 62.0637 59.5465 62.2539C59.3021 62.4212 59.1139 62.6506 58.9439 62.8781C58.791 63.1193 58.6596 63.365 58.5642 63.6088C58.3746 64.0957 58.2786 64.5402 58.2224 64.8533C58.1668 65.167 58.1505 65.3526 58.1505 65.3526C58.1505 65.3526 58.1008 65.1735 58.0675 64.8474C58.0367 64.5232 58.0178 64.0487 58.1341 63.4814C58.1903 63.1977 58.2871 62.8931 58.44 62.5846C58.606 62.2866 58.8067 61.9624 59.1145 61.7193C59.4034 61.4565 59.7629 61.2637 60.1818 61.1395C60.389 61.0683 60.5459 61.0663 60.7322 61.0258C60.9701 60.984 61.1407 61.0049 61.3498 60.9944C61.5485 60.9827 61.7498 61.0245 61.9492 61.0578C62.1511 61.0794 62.3439 61.1434 62.5341 61.2147C62.7295 61.2689 62.9041 61.3709 63.0733 61.4748C63.2505 61.5657 63.3936 61.699 63.5407 61.8206C64.1132 62.3284 64.4315 62.9624 64.6093 63.5016C64.7916 64.0461 64.8433 64.516 64.8622 64.8415C64.8786 65.1676 64.859 65.3526 64.859 65.3526Z" fill="#352836"/>
<path d="M83.7647 65.0477C83.7647 65.0477 83.719 64.8673 83.6164 64.5653C83.5137 64.264 83.3543 63.8385 83.1052 63.3732C82.853 62.9117 82.5007 62.4098 82.0092 62.0437C81.7673 61.8588 81.4896 61.7117 81.1882 61.6202C81.0399 61.5679 80.8882 61.5189 80.7242 61.5085C80.5641 61.4869 80.4052 61.4529 80.2373 61.4699C80.0817 61.4758 79.883 61.4562 79.7628 61.4784C79.5928 61.5111 79.3797 61.5196 79.2484 61.5712C78.983 61.6575 78.6804 61.7588 78.4523 61.949C78.2079 62.1163 78.0196 62.3457 77.8497 62.5732C77.6967 62.8143 77.566 63.0601 77.4699 63.3039C77.2804 63.7908 77.1843 64.2353 77.1281 64.5483C77.0726 64.862 77.0562 65.0477 77.0562 65.0477C77.0562 65.0477 77.0065 64.8686 76.9732 64.5431C76.9425 64.2183 76.9235 63.7437 77.0399 63.1764C77.0961 62.8928 77.1928 62.5882 77.3458 62.2803C77.5118 61.9817 77.7124 61.6575 78.0203 61.4143C78.3092 61.1516 78.6686 60.9588 79.0876 60.8346C79.2948 60.7634 79.4516 60.7614 79.6379 60.7209C79.8758 60.679 80.0464 60.7 80.2556 60.6895C80.4543 60.6777 80.6556 60.7196 80.8549 60.7529C81.0569 60.7745 81.2497 60.8385 81.4399 60.9098C81.6353 60.964 81.8098 61.066 81.9791 61.1699C82.1562 61.2607 82.2994 61.3941 82.4464 61.5156C83.019 62.0235 83.3373 62.6575 83.515 63.1967C83.6974 63.7411 83.749 64.2111 83.768 64.5366C83.7843 64.8627 83.7647 65.0477 83.7647 65.0477Z" fill="#352836"/>
<path d="M71.2912 33.5777C71.2912 33.5777 72.335 47.196 51.6808 52.9006C51.6808 52.9006 52.271 59.7855 50.5004 66.2764C50.5004 66.2764 43.8128 56.6378 46.9598 45.2287C50.1069 33.8202 66.0527 24.6803 71.2912 33.5777Z" fill="#352836"/>
<path d="M69.6642 33.5777C69.6642 33.5777 69.2746 47.196 89.9289 52.9006C89.9289 52.9006 88.9452 61.5555 90.7158 68.047C90.7158 68.047 97.7968 56.6378 94.6498 45.2287C91.5021 33.8202 74.9027 24.6803 69.6642 33.5777Z" fill="#352836"/>
<path d="M54.801 51.916C51.7873 49.816 49.1049 47.1101 47.3076 44.1245C47.1795 44.4898 47.0618 44.8578 46.9598 45.2291C43.8128 56.6382 50.5004 66.2768 50.5004 66.2768C52.271 59.7853 51.6808 52.9003 51.6808 52.9003C52.786 52.5951 53.8167 52.263 54.801 51.916Z" fill="#281F29"/>
</svg>
