<svg width="24" height="24" viewBox="0 0 24 24" fill="none" xmlns="http://www.w3.org/2000/svg">
<g clip-path="url(#clip0_123_927)">
<path d="M10.7012 3.5C13.0475 3.5 14.4743 3.5 14.7396 3.5C15.0048 3.5 15.2591 3.60536 15.4467 3.79289L17.1538 5.5H19.7396C20.8441 5.5 21.7396 6.39543 21.7396 7.5V17.5C21.7396 18.6046 20.8441 19.5 19.7396 19.5H3.73956C2.63499 19.5 1.73956 18.6046 1.73956 17.5V9.54562C1.73956 8 3.73956 8 3.73956 9.54562L9.15378 9V6.5C9.15378 6.5 10.7012 5.89053 10.7012 5.5C9.04745 5.5 9.04745 3.5 10.7012 3.5ZM10.7012 5.5C10.7012 5.89053 9.15378 6.5 9.15378 6.5V9L3.73956 9.54562V17.5H19.7396V7.5H16.7396C16.4743 7.5 16.22 7.39465 16.0325 7.20711L14.3253 5.5C14.3253 5.5 12.7209 5.5 10.7012 5.5ZM11.7396 10C10.635 10 9.73956 10.8954 9.73956 12C9.73956 13.1046 10.635 14 11.7396 14C12.8441 14 13.7396 13.1046 13.7396 12C13.7396 10.8954 12.8441 10 11.7396 10ZM7.73956 12C7.73956 9.79087 9.53042 8 11.7396 8C13.9487 8 15.7396 9.79087 15.7396 12C15.7396 14.2091 13.9487 16 11.7396 16C9.53042 16 7.73956 14.2091 7.73956 12Z" fill="#0D0D0D"/>
<path d="M2 5C4.00036 5 6.00008 5 8 5" stroke="black" stroke-width="2" stroke-linecap="round"/>
<path d="M5 2C5 4.00036 5 6.00008 5 8" stroke="black" stroke-width="2" stroke-linecap="round"/>
</g>
<defs>
<clipPath id="clip0_123_927">
<rect width="24" height="24" fill="white"/>
</clipPath>
</defs>
</svg>
