<svg width="32" height="32" viewBox="0 0 32 32" fill="none" xmlns="http://www.w3.org/2000/svg">
<g clip-path="url(#clip0_126_934)">
<path d="M14.2682 4.66669C17.3965 4.66669 19.299 4.66669 19.6527 4.66669C20.0063 4.66669 20.3454 4.80716 20.5955 5.05721L22.8716 7.33336H26.3193C27.7921 7.33336 28.986 8.52727 28.986 10V23.3334C28.986 24.8061 27.7921 26 26.3193 26H4.986C3.51324 26 2.31934 24.8061 2.31934 23.3334V12.7275C2.31934 10.6667 4.986 10.6667 4.986 12.7275L12.205 12V8.66669C12.205 8.66669 14.2682 7.85405 14.2682 7.33336C12.0632 7.33336 12.0632 4.66669 14.2682 4.66669ZM14.2682 7.33336C14.2682 7.85405 12.205 8.66669 12.205 8.66669V12L4.986 12.7275V23.3334H26.3193V10H22.3193C21.9657 10 21.6266 9.85955 21.3765 9.6095L19.1004 7.33336C19.1004 7.33336 16.9611 7.33336 14.2682 7.33336ZM15.6527 13.3334C14.1799 13.3334 12.986 14.5273 12.986 16C12.986 17.4728 14.1799 18.6667 15.6527 18.6667C17.1254 18.6667 18.3193 17.4728 18.3193 16C18.3193 14.5273 17.1254 13.3334 15.6527 13.3334ZM10.3193 16C10.3193 13.0545 12.7072 10.6667 15.6527 10.6667C18.5982 10.6667 20.986 13.0545 20.986 16C20.986 18.9455 18.5982 21.3334 15.6527 21.3334C12.7072 21.3334 10.3193 18.9455 10.3193 16Z" fill="black"/>
<path d="M2.66663 6.66669C5.33378 6.66669 8.00007 6.66669 10.6666 6.66669" stroke="black" stroke-width="2.5" stroke-linecap="round"/>
<path d="M6.66663 2.66669C6.66663 5.33384 6.66663 8.00013 6.66663 10.6667" stroke="black" stroke-width="2.5" stroke-linecap="round"/>
</g>
<defs>
<clipPath id="clip0_126_934">
<rect width="32" height="32" fill="white"/>
</clipPath>
</defs>
</svg>
