<svg width="35" height="35" viewBox="0 0 35 35" fill="none" xmlns="http://www.w3.org/2000/svg">
<path d="M25.8229 3.34381C25.2534 2.77429 24.33 2.77429 23.7605 3.34381L20.4167 6.68761L18.5312 4.80214C17.9617 4.23263 17.0383 4.23263 16.4688 4.80214L7.7188 13.5521C7.14929 14.1217 7.14929 15.045 7.7188 15.6145C8.28832 16.1841 9.21168 16.1841 9.7812 15.6145L17.5 7.89573L18.3543 8.75001L15.0105 12.0938L4.80214 22.3021C4.52865 22.5756 4.375 22.9466 4.375 23.3333V29.1667C4.375 29.9721 5.02792 30.625 5.83333 30.625H11.6667C12.0534 30.625 12.4244 30.4714 12.6979 30.1979L22.9062 19.9895L31.6562 11.2395C32.2257 10.67 32.2257 9.74666 31.6562 9.17714L25.8229 3.34381ZM21.4479 9.7812L24.7917 6.4374L28.5626 10.2083L21.875 16.8959L18.1041 13.125L21.4479 9.7812ZM7.29167 23.9374L16.0417 15.1874L19.8126 18.9583L11.0626 27.7083H7.29167V23.9374Z" fill="#0D0D0D"/>
</svg>
