<svg width="24" height="25" viewBox="0 0 24 25" fill="none" xmlns="http://www.w3.org/2000/svg">
<path d="M12 4.04428C11.4477 4.04428 11 4.492 11 5.04428C11 6.73654 8.95399 7.58402 7.75738 6.38742C7.36686 5.99689 6.73369 5.99689 6.34317 6.38742C5.95265 6.77794 5.95265 7.41111 6.34317 7.80163C7.53982 8.99828 6.69223 11.0443 5 11.0443C4.44772 11.0443 4 11.492 4 12.0443C4 12.5966 4.44772 13.0443 5 13.0443C6.69236 13.0443 7.53964 15.0904 6.34311 16.2869C5.95258 16.6775 5.95258 17.3106 6.34311 17.7011C6.73363 18.0917 7.3668 18.0917 7.75732 17.7011C8.9539 16.5046 11 17.3519 11 19.0443C11 19.5966 11.4477 20.0443 12 20.0443C12.5523 20.0443 13 19.5966 13 19.0443C13 17.352 15.046 16.5045 16.2427 17.7011C16.6332 18.0917 17.2664 18.0917 17.6569 17.7011C18.0474 17.3106 18.0474 16.6774 17.6569 16.2869C16.4603 15.0903 17.3077 13.0443 19 13.0443C19.5523 13.0443 20 12.5966 20 12.0443C20 11.492 19.5523 11.0443 19 11.0443C17.3078 11.0443 16.4601 8.99833 17.6568 7.80165C18.0473 7.41112 18.0473 6.77796 17.6568 6.38743C17.2663 5.99691 16.6331 5.99691 16.2426 6.38743C15.046 7.58407 13 6.73647 13 5.04428C13 4.492 12.5523 4.04428 12 4.04428ZM9.00816 4.82131C9.12224 3.26858 10.4181 2.04428 12 2.04428C13.5819 2.04428 14.8778 3.26858 14.9918 4.82131C16.1705 3.80405 17.9525 3.85468 19.071 4.97322C20.1896 6.09176 20.2402 7.87383 19.2229 9.05244C20.7757 9.16649 22 10.4624 22 12.0443C22 13.6261 20.7757 14.922 19.223 15.0361C20.2403 16.2147 20.1896 17.9968 19.0711 19.1153C17.9525 20.2339 16.1705 20.2845 14.9918 19.2672C14.8778 20.82 13.5819 22.0443 12 22.0443C10.4181 22.0443 9.12221 20.82 9.00816 19.2672C7.82955 20.2845 6.04745 20.2339 4.92889 19.1154C3.81034 17.9968 3.75972 16.2147 4.77702 15.0361C3.2243 14.922 2 13.6261 2 12.0443C2 10.4624 3.22433 9.16649 4.77709 9.05244C3.75978 7.87383 3.81041 6.09175 4.92896 4.9732C6.0475 3.85466 7.82955 3.80403 9.00816 4.82131Z" fill="#0D0D0D"/>
<path d="M12 10.0443C11.4696 10.0443 10.9609 10.255 10.5858 10.6301C10.2107 11.0051 10 11.5138 10 12.0443C10 12.5747 10.2107 13.0834 10.5858 13.4585C10.9609 13.8336 11.4696 14.0443 12 14.0443C12.5304 14.0443 13.0391 13.8336 13.4142 13.4585C13.7893 13.0834 14 12.5747 14 12.0443C14 11.5138 13.7893 11.0051 13.4142 10.6301C13.0391 10.255 12.5304 10.0443 12 10.0443ZM9.17157 9.21585C9.92172 8.46571 10.9391 8.04428 12 8.04428C13.0609 8.04428 14.0783 8.46571 14.8284 9.21585C15.5786 9.966 16 10.9834 16 12.0443C16 13.1051 15.5786 14.1226 14.8284 14.8727C14.0783 15.6229 13.0609 16.0443 12 16.0443C10.9391 16.0443 9.92172 15.6229 9.17157 14.8727C8.42143 14.1226 8 13.1051 8 12.0443C8 10.9834 8.42143 9.966 9.17157 9.21585Z" fill="#0D0D0D"/>
</svg>
